<?xml version="1.0" encoding="UTF-8" standalone="no"?>
<svg
   xmlns:dc="http://purl.org/dc/elements/1.1/"
   xmlns:cc="http://creativecommons.org/ns#"
   xmlns:rdf="http://www.w3.org/1999/02/22-rdf-syntax-ns#"
   xmlns:svg="http://www.w3.org/2000/svg"
   xmlns="http://www.w3.org/2000/svg"
   xmlns:xlink="http://www.w3.org/1999/xlink"
   enable-background="new"
   xml:space="preserve"
   style="enable-background:new 0 0 319.949 319.949;"
   viewBox="0 0 319.949 319.949"
   y="0px"
   x="0px"
   id="Capa_1"
   version="1.1"><metadata
   id="metadata45"><rdf:RDF><cc:Work
       rdf:about=""><dc:format>image/svg+xml</dc:format><dc:type
         rdf:resource="http://purl.org/dc/dcmitype/StillImage" /><dc:title></dc:title></cc:Work></rdf:RDF></metadata><defs
   id="defs43"><linearGradient
     id="linearGradient4605"><stop
       id="stop4601"
       offset="0"
       style="stop-color:#000000;stop-opacity:1;" /><stop
       id="stop4603"
       offset="1"
       style="stop-color:#00006e;stop-opacity:1" /></linearGradient><filter
     id="filter4585"
     style="color-interpolation-filters:sRGB"><feBlend
       id="feBlend4587"
       in2="BackgroundImage"
       mode="overlay" /></filter><filter
     id="filter4589"
     style="color-interpolation-filters:sRGB"><feBlend
       id="feBlend4591"
       in2="BackgroundImage"
       mode="overlay" /></filter><linearGradient
     gradientUnits="userSpaceOnUse"
     y2="197.64995"
     x2="97.905624"
     y1="197.03319"
     x1="13.21988"
     id="linearGradient4607"
     xlink:href="#linearGradient4605" /><linearGradient
     gradientUnits="userSpaceOnUse"
     y2="253.80312"
     x2="302.92899"
     y1="121.51134"
     x1="25.883173"
     id="linearGradient4609"
     xlink:href="#linearGradient4605" /><linearGradient
     y2="310.78076"
     x2="308.78705"
     y1="10.36332"
     x1="7.057374"
     gradientUnits="userSpaceOnUse"
     id="linearGradient4617"
     xlink:href="#linearGradient4605" /></defs>
<g
   id="g4648"><g
     id="g4638"><g
       style="fill:url(#linearGradient4609);fill-opacity:1"
       id="g4599"><g
         id="g8"
         transform="matrix(0.00378594,0.67341077,-0.67338031,-0.0019364,276.36163,10.12093)"
         style="fill:url(#linearGradient4609);fill-opacity:1;filter:url(#filter4589)">
	<g
   style="fill:url(#linearGradient4609);fill-opacity:1"
   id="g4580"><g
     style="fill:url(#linearGradient4609);fill-opacity:1"
     id="g4583"><g
       id="g4651"><path
         style="fill:url(#linearGradient4617);fill-opacity:1;stroke-width:1.00214899"
         id="path2"
         d="m 261.76607,319.9443 c -2.60459,0 -5.11197,-1.01418 -6.98498,-2.83408 l -2.52041,-2.44925 -22.77082,0.65841 c -8.59744,0.19742 -15.62752,-6.49793 -15.86603,-15.14147 l -0.34073,-12.20617 -11.57883,0.33472 c -0.14531,0.004 -0.29563,0.006 -0.44695,0.006 -8.41304,0 -15.18557,-6.65527 -15.41807,-15.15149 l -0.33772,-12.20016 -11.57983,0.33472 c -0.15433,0.004 -0.29563,0.006 -0.43794,0.006 -8.41805,0 -15.19458,-6.65628 -15.42808,-15.1535 l -0.67846,-24.37226 c -2.0975,-2.13157 -5.77438,-5.61103 -9.72686,-9.24983 -3.90637,2.24581 -8.36393,3.46843 -12.92371,3.46843 -6.78655,0 -13.22436,-2.62563 -18.12486,-7.39285 -0.20043,-0.19441 -0.39285,-0.39785 -0.57624,-0.6083 -0.48404,-0.5582 -1.00916,-1.17753 -1.5413,-1.83193 -3.94546,0.45598 -7.91999,0.68647 -11.88449,0.68647 -27.612208,0 -53.567866,-10.79815 -73.087723,-30.4082 -40.268348,-40.44874 -40.268348,-106.263868 0,-146.713606 19.521862,-19.611052 45.479523,-30.41020922 73.092733,-30.41020922 27.61321,0 53.56987,10.79915722 73.09073,30.40920722 23.77298,23.879205 34.35768,57.424136 28.80477,90.561188 2.62864,4.08877 4.10681,8.84898 4.2431,13.83768 0.11725,4.27817 -0.74861,8.43007 -2.49635,12.18412 L 316.2529,256.98429 c 1.79786,1.80988 2.83809,4.23608 2.90924,6.78555 l 0.77567,27.79761 c 0.40186,14.71355 -11.02264,27.02094 -25.46962,27.44184 l -32.41551,0.932 c -0.0952,0.002 -0.19141,0.003 -0.28661,0.003 z m -5.55892,-25.44557 c 2.60458,0 5.11196,1.01518 6.98497,2.83508 l 2.52041,2.44925 28.17742,-0.81073 c 3.41432,-0.0992 6.11511,-3.17381 6.0139,-6.8527 L 299.23842,268.29655 187.59201,155.97068 c -1.50723,-1.51725 -2.48934,-3.47645 -2.80501,-5.59098 l -0.38383,-2.57954 c -0.44395,-2.99341 0.48605,-6.02792 2.53444,-8.2557 1.19155,-1.29678 1.8209,-3.02749 1.7708,-4.87044 -0.0491,-1.79185 -0.75362,-3.45341 -1.98225,-4.67904 -2.41218,-2.40315 -3.43838,-5.86758 -2.72485,-9.19772 5.99987,-27.987012 -2.41518,-56.74568 -22.51127,-76.932969 -15.73073,-15.802886 -36.64357,-24.505548 -58.88627,-24.505548 -22.242696,0 -43.153535,8.702662 -58.886271,24.505548 -32.506705,32.652017 -32.506705,85.781949 0,118.432959 15.730731,15.80389 36.641571,24.50555 58.883261,24.50555 5.32242,0 10.66487,-0.5141 15.88206,-1.52527 4.3363,-0.84582 8.71068,1.25369 10.7721,5.15906 0.57724,1.09435 0.36979,4.1018 5.21318,4.93659 1.62047,0.2796 3.44238,-0.10122 4.60086,-1.33386 l 1.29779,-1.47216 c 1.76779,-2.0043 4.26013,-3.21991 6.92685,-3.37624 2.68175,-0.15433 5.28634,0.75662 7.2766,2.53844 0.20043,0.18039 4.97868,4.46057 9.84812,9.00932 10.66888,9.96637 12.77139,12.33245 12.90167,17.06459 l 0.64839,23.32201 16.98341,-0.49105 c 2.68176,-0.0842 5.24024,0.90795 7.17238,2.73386 1.93415,1.82692 3.06157,4.34833 3.13473,7.00703 l 0.49205,17.76209 16.97941,-0.49106 c 2.68275,-0.0862 5.24024,0.90695 7.17138,2.73387 1.93415,1.82591 3.06156,4.34632 3.13572,7.00401 l 0.49607,17.7671 22.38199,-0.64739 c 0.0982,-0.004 0.19542,-0.005 0.29163,-0.005 z" /></g></g></g>
	<path
   d="m 84.895,120.428 c -9.363,0 -18.163,-3.659 -24.779,-10.305 -13.631,-13.695 -13.63,-35.974 0,-49.664 6.616,-6.646 15.418,-10.308 24.782,-10.308 9.364,0 18.166,3.661 24.782,10.309 13.629,13.69 13.627,35.968 -0.003,49.659 -6.615,6.647 -15.416,10.309 -24.782,10.309 z m 0.003,-50.276 c -4.005,0 -7.772,1.569 -10.608,4.418 -5.885,5.911 -5.885,15.53 10e-4,21.443 2.834,2.847 6.601,4.415 10.604,4.415 4.005,0 7.771,-1.569 10.607,-4.418 5.886,-5.913 5.887,-15.53 0.004,-21.44 -2.835,-2.849 -6.603,-4.418 -10.608,-4.418 z"
   id="path4"
   style="fill:url(#linearGradient4609);fill-opacity:1" />
	<path
   d="m 271.669,282.908 c -2.566,0 -5.133,-0.981 -7.087,-2.945 l -88.698,-89.1 c -3.896,-3.914 -3.882,-10.245 0.032,-14.142 3.912,-3.895 10.245,-3.884 14.142,0.032 l 88.698,89.1 c 3.896,3.914 3.882,10.245 -0.032,14.142 -1.951,1.942 -4.503,2.913 -7.055,2.913 z"
   id="path6"
   style="fill:url(#linearGradient4609);fill-opacity:1" />
</g></g></g></g>
<g
   id="g10">
</g>
<g
   id="g12">
</g>
<g
   id="g14">
</g>
<g
   id="g16">
</g>
<g
   id="g18">
</g>
<g
   id="g20">
</g>
<g
   id="g22">
</g>
<g
   id="g24">
</g>
<g
   id="g26">
</g>
<g
   id="g28">
</g>
<g
   id="g30">
</g>
<g
   id="g32">
</g>
<g
   id="g34">
</g>
<g
   id="g36">
</g>
<g
   id="g38">
</g>
<g
   id="layer2" /><g
   id="layer1" /><g
   id="g868"><g
     id="g4623"><g
       aria-label="less"
       transform="matrix(3.5091757,0,0,3.1086177,-34.887247,-360.61503)"
       style="font-style:normal;font-variant:normal;font-weight:normal;font-stretch:normal;font-size:12.66035938px;line-height:1.25;font-family:Gabriola;-inkscape-font-specification:Gabriola;letter-spacing:0px;word-spacing:0px;fill:url(#linearGradient4607);fill-opacity:1;stroke:none;filter:url(#filter4585)"
       id="flowRoot3738"><g
         id="g874"><path
           id="path853"
           style="font-style:normal;font-variant:normal;font-weight:normal;font-stretch:normal;font-size:35.44900894px;line-height:1.25;font-family:'Lucida Console';-inkscape-font-specification:'Lucida Console';fill:url(#linearGradient4607);fill-opacity:1"
           d="m 22.665192,209.33076 v -24.76931 h -7.252507 v -2.56174 h 10.679706 v 27.33105 z" /><path
           id="path855"
           style="font-style:normal;font-variant:normal;font-weight:normal;font-stretch:normal;font-size:35.44900894px;line-height:1.25;font-family:'Lucida Console';-inkscape-font-specification:'Lucida Console';fill:url(#linearGradient4607);fill-opacity:1"
           d="m 52.817621,208.58647 q -3.548362,1.17701 -6.508216,1.17701 -4.846544,0 -7.460216,-2.49251 -2.596363,-2.4925 -2.596363,-7.13134 0,-4.3792 2.492508,-7.20058 2.509818,-2.82138 6.369744,-2.82138 3.894544,0 5.729307,2.33673 1.852073,2.33672 1.852073,7.26981 v 1.09048 H 39.887734 q 0.3808,6.38705 6.889016,6.38705 2.752145,0 6.040871,-1.31549 z M 39.991588,198.25294 h 9.069962 v -0.48465 q 0,-5.08888 -4.240727,-5.08888 -2.042472,0 -3.323344,1.47128 -1.263564,1.47127 -1.505891,4.10225 z" /><path
           id="path857"
           style="font-style:normal;font-variant:normal;font-weight:normal;font-stretch:normal;font-size:35.44900894px;line-height:1.25;font-family:'Lucida Console';-inkscape-font-specification:'Lucida Console';fill:url(#linearGradient4607);fill-opacity:1"
           d="m 58.443075,208.56916 v -3.08102 q 3.963781,1.7136 6.854398,1.7136 2.077091,0 3.427199,-0.83084 1.367418,-0.84814 1.367418,-2.12902 0,-1.64436 -3.236799,-2.6829 l -3.652217,-1.19433 q -4.275344,-1.38473 -4.275344,-4.88116 0,-2.56175 1.921308,-3.96378 1.938618,-1.40204 5.469671,-1.40204 2.648291,0 6.144726,0.81353 v 2.76945 q -3.375272,-1.02124 -6.162035,-1.02124 -1.869381,0 -2.994472,0.67506 -1.107781,0.67505 -1.107781,1.81745 0,1.40204 2.544436,2.2848 l 4.309962,1.50589 q 2.354036,0.83084 3.375272,1.99055 1.038545,1.1424 1.038545,2.97716 0,2.6656 -2.198254,4.25804 -2.198254,1.57512 -5.902398,1.57512 -3.2368,0 -6.923635,-1.19432 z" /><path
           id="path859"
           style="font-style:normal;font-variant:normal;font-weight:normal;font-stretch:normal;font-size:35.44900894px;line-height:1.25;font-family:'Lucida Console';-inkscape-font-specification:'Lucida Console';fill:url(#linearGradient4607);fill-opacity:1"
           d="m 79.83711,208.56916 v -3.08102 q 3.963781,1.7136 6.854399,1.7136 2.07709,0 3.427199,-0.83084 1.367418,-0.84814 1.367418,-2.12902 0,-1.64436 -3.2368,-2.6829 l -3.652217,-1.19433 q -4.275344,-1.38473 -4.275344,-4.88116 0,-2.56175 1.921308,-3.96378 1.938618,-1.40204 5.469672,-1.40204 2.64829,0 6.144725,0.81353 v 2.76945 q -3.375271,-1.02124 -6.162034,-1.02124 -1.869382,0 -2.994472,0.67506 -1.107782,0.67505 -1.107782,1.81745 0,1.40204 2.544436,2.2848 l 4.309962,1.50589 q 2.354036,0.83084 3.375272,1.99055 1.038545,1.1424 1.038545,2.97716 0,2.6656 -2.198254,4.25804 -2.198254,1.57512 -5.902398,1.57512 -3.236799,0 -6.923635,-1.19432 z" /></g></g></g></g></svg>